<svg width="20" height="18" viewBox="0 0 20 18" fill="none" xmlns="http://www.w3.org/2000/svg">
<path d="M17.8947 0H2.10526C1.54691 0 1.01143 0.223104 0.616617 0.620231C0.221804 1.01736 0 1.55598 0 2.1176V11.6468C0 12.2084 0.221804 12.747 0.616617 13.1442C1.01143 13.5413 1.54691 13.7644 2.10526 13.7644H4.21053V16.9408C4.21045 17.1403 4.26642 17.3358 4.37198 17.5047C4.47754 17.6736 4.6284 17.8091 4.80718 17.8955C4.98595 17.9819 5.18536 18.0158 5.38243 17.9932C5.57951 17.9706 5.76622 17.8924 5.92105 17.7677L10.8958 13.7644H17.8947C18.4531 13.7644 18.9886 13.5413 19.3834 13.1442C19.7782 12.747 20 12.2084 20 11.6468V2.1176C20 1.55598 19.7782 1.01736 19.3834 0.620231C18.9886 0.223104 18.4531 0 17.8947 0ZM5.78947 8.4704C5.47719 8.4704 5.17191 8.37725 4.91226 8.20274C4.6526 8.02823 4.45022 7.78018 4.33072 7.48998C4.21121 7.19977 4.17994 6.88044 4.24087 6.57236C4.30179 6.26428 4.45217 5.98129 4.67299 5.75917C4.89381 5.53706 5.17515 5.3858 5.48144 5.32452C5.78772 5.26324 6.1052 5.29469 6.39371 5.4149C6.68223 5.5351 6.92882 5.73867 7.10232 5.99984C7.27582 6.26102 7.36842 6.56808 7.36842 6.8822C7.36842 7.30342 7.20207 7.70738 6.90596 8.00523C6.60985 8.30307 6.20824 8.4704 5.78947 8.4704ZM10 8.4704C9.68771 8.4704 9.38244 8.37725 9.12278 8.20274C8.86313 8.02823 8.66075 7.78018 8.54124 7.48998C8.42174 7.19977 8.39047 6.88044 8.45139 6.57236C8.51232 6.26428 8.6627 5.98129 8.88352 5.75917C9.10434 5.53706 9.38568 5.3858 9.69196 5.32452C9.99825 5.26324 10.3157 5.29469 10.6042 5.4149C10.8928 5.5351 11.1394 5.73867 11.3128 5.99984C11.4863 6.26102 11.5789 6.56808 11.5789 6.8822C11.5789 7.30342 11.4126 7.70738 11.1165 8.00523C10.8204 8.30307 10.4188 8.4704 10 8.4704ZM14.2105 8.4704C13.8982 8.4704 13.593 8.37725 13.3333 8.20274C13.0737 8.02823 12.8713 7.78018 12.7518 7.48998C12.6323 7.19977 12.601 6.88044 12.6619 6.57236C12.7228 6.26428 12.8732 5.98129 13.094 5.75917C13.3149 5.53706 13.5962 5.3858 13.9025 5.32452C14.2088 5.26324 14.5262 5.29469 14.8148 5.4149C15.1033 5.5351 15.3499 5.73867 15.5234 5.99984C15.6969 6.26102 15.7895 6.56808 15.7895 6.8822C15.7895 7.30342 15.6231 7.70738 15.327 8.00523C15.0309 8.30307 14.6293 8.4704 14.2105 8.4704Z" fill="white"/>
</svg>
